<?xml version="1.0" encoding="UTF-8"?>
<svg xmlns="http://www.w3.org/2000/svg" version="1.1" viewBox="0 0 283.5 50.74">
  <path d="m170.8 1.699c0-0.937 0.762-1.699 1.719-1.699h51.21c0.957 0 1.719 0.762 1.719 1.699v6.768c0 0.928-0.762 1.689-1.719 1.689h-17.07c-0.938 0-1.699 0.752-1.699 1.689v37.2c0 0.938-0.762 1.699-1.719 1.699h-10.23c-0.957 0-1.719-0.762-1.719-1.699v-37.2c0-0.937-0.762-1.689-1.699-1.689h-17.07c-0.957 0-1.719-0.761-1.719-1.689v-6.768h-1e-3zm-58.06 18.6c0 5.596 4.582 10.14 10.24 10.14h27.32c1.895 0 3.418 1.523 3.418 3.389v3.379c0 1.875-1.523 3.389-3.418 3.389h-22.2c-0.942 0-1.709-0.762-1.709-1.699 0-0.928-0.762-1.689-1.704-1.689h-10.25c-0.939 0-1.701 0.762-1.701 1.689v1.699c0 5.605 4.582 10.15 10.24 10.15h34.16c5.645 0 10.23-4.541 10.23-10.15v-10.16c0-5.605-4.59-10.14-10.23-10.14h-27.33c-1.885 0-3.418-1.514-3.418-3.389v-3.379c0-1.875 1.533-3.379 3.418-3.379h22.19c0.957 0 1.719 0.752 1.719 1.689 0 0.928 0.762 1.69 1.699 1.69h10.25c0.938 0 1.699-0.762 1.699-1.69v-1.689c1e-3 -5.605-4.589-10.16-10.23-10.16h-34.16c-5.662 0-10.24 4.55-10.24 10.16v10.15zm-58.06-18.6c0-0.937 0.763-1.699 1.709-1.699h51.23c0.94 0 1.709 0.762 1.709 1.699v6.768c0 0.928-0.769 1.689-1.709 1.689h-37.57c-0.947 0-1.709 0.752-1.709 1.689v6.768c0 0.928 0.762 1.69 1.709 1.69h34.15c0.94 0 1.709 0.752 1.709 1.689v6.768c0 0.928-0.769 1.68-1.709 1.68h-34.15c-0.947 0-1.709 0.762-1.709 1.699v6.758c0 0.938 0.762 1.699 1.709 1.699h37.57c0.94 0 1.709 0.752 1.709 1.689v6.758c0 0.938-0.769 1.699-1.709 1.699h-51.23c-0.946 0-1.709-0.762-1.709-1.699v-47.34zm-52.94 49.04c-0.938 0-1.709-0.762-1.709-1.699v-47.34c0-0.937 0.771-1.699 1.709-1.699h47.81c0.946 0 1.709 0.762 1.709 1.699v6.768c0 0.928-0.763 1.689-1.709 1.689h-34.15c-0.938 0-1.709 0.752-1.709 1.689v6.768c0 0.928 0.771 1.69 1.709 1.69h30.74c0.938 0 1.709 0.752 1.709 1.689l-9e-3 6.768c0 0.928-0.762 1.68-1.7 1.68h-30.74c-0.938 0-1.709 0.762-1.709 1.699v16.9c0 0.938-0.762 1.699-1.709 1.699h-10.24zm271.5-50.74h-34.16c-5.645 0-10.23 4.55-10.23 10.16v30.44c0 5.605 4.59 10.15 10.23 10.15h34.16c5.664 0 10.23-4.541 10.23-10.15v-30.44c1e-3 -5.606-4.569-10.16-10.23-10.16zm-3.418 37.21c0 1.875-1.523 3.389-3.418 3.389h-20.49c-1.895 0-3.418-1.514-3.418-3.389v-23.67c0-1.875 1.523-3.379 3.418-3.379h20.49c1.895 0 3.418 1.504 3.418 3.379v23.67z" clip-rule="evenodd" fill="#0091DC" fill-rule="evenodd"></path>
</svg>
